<svg width="44" height="20" viewBox="0 0 44 20" fill="none" xmlns="http://www.w3.org/2000/svg">
<g clip-path="url(#clip0_48_4797)">
<path d="M11.0414 13.7028C11.0414 12.7603 10.2022 12.2556 7.7902 11.9185C4.36524 11.4472 0.345718 10.3372 0.345718 6.16154C0.345718 1.98591 4.33142 0 8.56013 0C11.0744 0 13.4164 0.605395 14.9193 1.65025C16.0738 2.45719 16.143 3.90589 15.4777 4.8818C14.8147 5.85846 13.801 6.22822 12.4389 5.62282C11.0052 4.98257 9.88686 4.81512 8.52474 4.81512C6.91725 4.81512 6.14889 5.45386 6.14889 6.09486C6.14889 7.10411 7.72099 7.44128 10.3068 7.77769C14.1518 8.28307 16.9114 10.1015 16.9114 13.6369C16.9114 17.5095 13.1711 19.8326 8.90853 19.9C5.69354 19.9667 2.75696 19.2946 0.834887 17.5769C-0.178841 16.6677 -0.281865 15.3213 0.591089 14.2772C1.42865 13.3013 3.00233 13.0656 4.15526 13.8392C5.09978 14.4795 6.70727 15.0515 8.45318 15.0515C10.1991 15.0515 11.0406 14.5461 11.0406 13.7036L11.0414 13.7028Z" fill="#860CFF"/>
<path d="M22.6324 0C24.5545 0 26.1628 1.54872 26.1628 3.40052C26.1628 5.25231 24.5553 6.80179 22.6324 6.80179C20.7095 6.80179 19.1021 5.25231 19.1021 3.40052C19.1021 1.54872 20.7103 0 22.6324 0Z" fill="#860CFF"/>
<path d="M38.908 5.21897C36.9159 5.21897 35.1322 7.03667 35.1322 9.66283V17.2049C35.1322 18.9559 33.8393 20 32.0911 20C30.3428 20 29.0522 18.9559 29.0522 17.2049V2.79436C29.0522 1.04334 30.3452 0 32.0911 0C33.5248 0 34.6785 0.740264 35.0269 1.95257C36.0406 0.706925 37.8581 0 39.4302 0C40.8639 0 42.0514 0.234884 42.9605 0.841037C43.8004 1.37975 44.3588 2.69283 43.7304 4.10668C43.1367 5.42052 41.703 5.95924 40.83 5.62206C40.1647 5.35308 39.5356 5.21822 38.908 5.21822V5.21897Z" fill="#860CFF"/>
<path d="M22.6324 9.02344C20.8857 9.02344 19.5928 10.0683 19.5928 11.8186V17.255H19.6061C19.6793 18.9143 20.9368 19.9039 22.6324 19.9039C24.328 19.9039 25.5871 18.9136 25.6602 17.255H25.6736V11.8186C25.6736 10.0683 24.3806 9.02344 22.6324 9.02344Z" fill="#860CFF"/>
</g>
<defs>
<clipPath id="clip0_48_4797">
<rect width="44" height="20" fill="white"/>
</clipPath>
</defs>
</svg>
